<mxfile modified="2022-05-03T08:25:30.015Z" host="app.diagrams.net" agent="5.0 (Windows NT 10.0; Win64; x64) AppleWebKit/537.36 (KHTML, like Gecko) Chrome/100.0.4896.127 Safari/537.36 Edg/100.0.1185.50" etag="_Ib9a8ZFGI2Z_Jb5_qNl" compressed="false" version="17.5.0" type="google" pages="2">
  <diagram id="5MvUfZKvCt6vNQkwG7TB" name="Information Validation Types">
    <mxGraphModel grid="1" page="1" gridSize="10" guides="1" tooltips="1" connect="1" arrows="1" fold="1" pageScale="1" pageWidth="827" pageHeight="1169" math="0" shadow="0">
      <root>
        <mxCell id="2Nln8GVLDwGdub9k7DS5-0" />
        <mxCell id="2Nln8GVLDwGdub9k7DS5-1" parent="2Nln8GVLDwGdub9k7DS5-0" />
        <mxCell id="2Nln8GVLDwGdub9k7DS5-2" value="Individual Attribute" style="rounded=0;whiteSpace=wrap;html=1;align=center;fillColor=#f5f5f5;strokeColor=#666666;fontColor=#333333;" vertex="1" parent="2Nln8GVLDwGdub9k7DS5-1">
          <mxGeometry x="120" y="230" width="80" height="40" as="geometry" />
        </mxCell>
        <mxCell id="2Nln8GVLDwGdub9k7DS5-3" value="Whole&lt;br&gt;Message&lt;br&gt;Object&amp;nbsp;" style="rounded=0;whiteSpace=wrap;html=1;align=center;fillColor=#f5f5f5;strokeColor=#666666;fontColor=#333333;" vertex="1" parent="2Nln8GVLDwGdub9k7DS5-1">
          <mxGeometry x="220" y="230" width="80" height="40" as="geometry" />
        </mxCell>
        <mxCell id="2Nln8GVLDwGdub9k7DS5-4" value="Required" style="rounded=0;whiteSpace=wrap;html=1;align=center;" vertex="1" parent="2Nln8GVLDwGdub9k7DS5-1">
          <mxGeometry x="120" y="290" width="80" height="30" as="geometry" />
        </mxCell>
        <mxCell id="2Nln8GVLDwGdub9k7DS5-5" value="Min/Max Length" style="rounded=0;whiteSpace=wrap;html=1;align=center;" vertex="1" parent="2Nln8GVLDwGdub9k7DS5-1">
          <mxGeometry x="120" y="330" width="80" height="30" as="geometry" />
        </mxCell>
        <mxCell id="2Nln8GVLDwGdub9k7DS5-6" value="&lt;span&gt;Range&lt;/span&gt;" style="rounded=0;whiteSpace=wrap;html=1;align=center;fontStyle=0" vertex="1" parent="2Nln8GVLDwGdub9k7DS5-1">
          <mxGeometry x="120" y="370" width="80" height="30" as="geometry" />
        </mxCell>
        <mxCell id="2Nln8GVLDwGdub9k7DS5-7" value="Pattern" style="rounded=0;whiteSpace=wrap;html=1;align=center;" vertex="1" parent="2Nln8GVLDwGdub9k7DS5-1">
          <mxGeometry x="120" y="450" width="80" height="30" as="geometry" />
        </mxCell>
        <mxCell id="2Nln8GVLDwGdub9k7DS5-8" value="Set Member" style="rounded=0;whiteSpace=wrap;html=1;align=center;" vertex="1" parent="2Nln8GVLDwGdub9k7DS5-1">
          <mxGeometry x="120" y="410" width="80" height="30" as="geometry" />
        </mxCell>
        <mxCell id="2Nln8GVLDwGdub9k7DS5-9" value="Client&lt;br&gt;Context&lt;br&gt;Service" style="rounded=0;whiteSpace=wrap;html=1;align=center;fillColor=#f5f5f5;strokeColor=#666666;fontColor=#333333;textOpacity=50;" vertex="1" parent="2Nln8GVLDwGdub9k7DS5-1">
          <mxGeometry x="320" y="230" width="80" height="40" as="geometry" />
        </mxCell>
        <mxCell id="2Nln8GVLDwGdub9k7DS5-10" value="Role" style="rounded=0;whiteSpace=wrap;html=1;align=center;textOpacity=50;" vertex="1" parent="2Nln8GVLDwGdub9k7DS5-1">
          <mxGeometry x="420" y="290" width="80" height="30" as="geometry" />
        </mxCell>
        <mxCell id="2Nln8GVLDwGdub9k7DS5-11" value="Biz Servicing Hours" style="rounded=0;whiteSpace=wrap;html=1;align=center;textOpacity=50;" vertex="1" parent="2Nln8GVLDwGdub9k7DS5-1">
          <mxGeometry x="320" y="290" width="80" height="30" as="geometry" />
        </mxCell>
        <mxCell id="2Nln8GVLDwGdub9k7DS5-12" value="Biz Servicing&lt;br&gt;Location" style="rounded=0;whiteSpace=wrap;html=1;align=center;textOpacity=50;" vertex="1" parent="2Nln8GVLDwGdub9k7DS5-1">
          <mxGeometry x="320" y="330" width="80" height="30" as="geometry" />
        </mxCell>
        <mxCell id="2Nln8GVLDwGdub9k7DS5-13" value="Device" style="rounded=0;whiteSpace=wrap;html=1;align=center;textOpacity=50;" vertex="1" parent="2Nln8GVLDwGdub9k7DS5-1">
          <mxGeometry x="420" y="330" width="80" height="30" as="geometry" />
        </mxCell>
        <mxCell id="2Nln8GVLDwGdub9k7DS5-14" value="Session based&lt;br&gt;Authorisation" style="rounded=0;whiteSpace=wrap;html=1;align=center;fillColor=#f5f5f5;strokeColor=#666666;fontColor=#333333;textOpacity=50;" vertex="1" parent="2Nln8GVLDwGdub9k7DS5-1">
          <mxGeometry x="420" y="230" width="80" height="40" as="geometry" />
        </mxCell>
        <mxCell id="2Nln8GVLDwGdub9k7DS5-16" value="&lt;p style=&quot;line-height: 90%&quot;&gt;Auto Reviewed &amp;amp; Approved&lt;/p&gt;" style="rounded=0;whiteSpace=wrap;html=1;align=center;textOpacity=50;" vertex="1" parent="2Nln8GVLDwGdub9k7DS5-1">
          <mxGeometry x="520" y="290" width="80" height="30" as="geometry" />
        </mxCell>
        <mxCell id="2Nln8GVLDwGdub9k7DS5-17" value="Workflow Based Approval" style="rounded=0;whiteSpace=wrap;html=1;align=center;fillColor=#f5f5f5;strokeColor=#666666;fontColor=#333333;textOpacity=50;" vertex="1" parent="2Nln8GVLDwGdub9k7DS5-1">
          <mxGeometry x="520" y="230" width="80" height="40" as="geometry" />
        </mxCell>
        <mxCell id="2Nln8GVLDwGdub9k7DS5-18" value="Incompatible&lt;br&gt;Choices" style="rounded=0;whiteSpace=wrap;html=1;align=center;" vertex="1" parent="2Nln8GVLDwGdub9k7DS5-1">
          <mxGeometry x="220" y="290" width="80" height="30" as="geometry" />
        </mxCell>
        <mxCell id="2Nln8GVLDwGdub9k7DS5-19" value="Completeness" style="rounded=0;whiteSpace=wrap;html=1;align=center;" vertex="1" parent="2Nln8GVLDwGdub9k7DS5-1">
          <mxGeometry x="220" y="330" width="80" height="30" as="geometry" />
        </mxCell>
        <mxCell id="P6dEM1u8eeqiW9vupXYG-0" value="&lt;font style=&quot;font-size: 12px&quot;&gt;Diagram: Information Validation - Categories &amp;amp; Types&lt;/font&gt;" style="text;strokeColor=none;fillColor=none;html=1;fontSize=12;fontStyle=2;verticalAlign=middle;align=left;shadow=0;glass=0;comic=0;opacity=30;fontColor=#808080;" vertex="1" parent="2Nln8GVLDwGdub9k7DS5-1">
          <mxGeometry x="120" y="585" width="520" height="20" as="geometry" />
        </mxCell>
        <mxCell id="P6dEM1u8eeqiW9vupXYG-1" value="eg:Embargos" style="rounded=0;whiteSpace=wrap;html=1;align=center;fontStyle=2;fillColor=#f5f5f5;fontColor=#333333;dashed=1;textOpacity=50;" vertex="1" parent="2Nln8GVLDwGdub9k7DS5-1">
          <mxGeometry x="330" y="360" width="80" height="30" as="geometry" />
        </mxCell>
        <mxCell id="P6dEM1u8eeqiW9vupXYG-2" value="&lt;p style=&quot;line-height: 100%&quot;&gt;Custom Rules &lt;br&gt;(User, etc.)&lt;/p&gt;" style="rounded=0;whiteSpace=wrap;html=1;align=center;spacing=0;textOpacity=50;" vertex="1" parent="2Nln8GVLDwGdub9k7DS5-1">
          <mxGeometry x="420" y="370" width="80" height="30" as="geometry" />
        </mxCell>
        <mxCell id="P6dEM1u8eeqiW9vupXYG-4" value="&lt;p style=&quot;line-height: 90%&quot;&gt;Role based Reviewed &amp;amp; Approved&lt;/p&gt;" style="rounded=0;whiteSpace=wrap;html=1;align=center;textOpacity=50;" vertex="1" parent="2Nln8GVLDwGdub9k7DS5-1">
          <mxGeometry x="520" y="330" width="80" height="30" as="geometry" />
        </mxCell>
        <mxCell id="AVSeOX70nhlcXuHzXOTY-0" value="&lt;p style=&quot;line-height: 100%&quot;&gt;Tip: &lt;br&gt;there are cases (eg: international bank accounts) where it is preferable to &quot;soft&quot; validate - a process of highlighting non-conformant values and gray out the OK/Submit form button until the user has checked a &quot;I know, proceed anyway&quot; boolean message value via a checkbox.&lt;/p&gt;" style="rounded=0;whiteSpace=wrap;html=1;align=left;" vertex="1" parent="2Nln8GVLDwGdub9k7DS5-1">
          <mxGeometry x="210" y="490" width="390" height="70" as="geometry" />
        </mxCell>
        <mxCell id="AVSeOX70nhlcXuHzXOTY-2" value="Validation" style="rounded=0;whiteSpace=wrap;html=1;fontSize=12;align=center;fillColor=#f5f5f5;fontColor=#333333;" vertex="1" parent="2Nln8GVLDwGdub9k7DS5-1">
          <mxGeometry x="120" y="180" width="180" height="40" as="geometry" />
        </mxCell>
        <mxCell id="AVSeOX70nhlcXuHzXOTY-3" value="Authorisation" style="rounded=0;whiteSpace=wrap;html=1;fontSize=12;align=center;fillColor=#f5f5f5;fontColor=#333333;textOpacity=50;" vertex="1" parent="2Nln8GVLDwGdub9k7DS5-1">
          <mxGeometry x="320" y="180" width="280" height="40" as="geometry" />
        </mxCell>
        <mxCell id="WR3kZQfr93bL7Yz2Tx-j-0" value="Content&lt;br&gt;&lt;font style=&quot;font-size: 11px&quot;&gt;abusive&amp;nbsp;&lt;/font&gt;&lt;font style=&quot;font-size: 10px&quot;&gt;img/lang&lt;/font&gt;" style="rounded=0;whiteSpace=wrap;html=1;align=center;" vertex="1" parent="2Nln8GVLDwGdub9k7DS5-1">
          <mxGeometry x="120" y="490" width="80" height="30" as="geometry" />
        </mxCell>
        <mxCell id="WR3kZQfr93bL7Yz2Tx-j-1" value="eg: metadata provided" style="rounded=0;whiteSpace=wrap;html=1;align=center;dashed=1;fontColor=#333333;fontStyle=2;fillColor=#f5f5f5;textOpacity=50;" vertex="1" parent="2Nln8GVLDwGdub9k7DS5-1">
          <mxGeometry x="230" y="360" width="80" height="30" as="geometry" />
        </mxCell>
        <mxCell id="WR3kZQfr93bL7Yz2Tx-j-2" value="Content&amp;nbsp;&lt;br&gt;&lt;span style=&quot;font-size: 11px&quot;&gt;(malware.check)&lt;/span&gt;" style="rounded=0;whiteSpace=wrap;html=1;align=center;" vertex="1" parent="2Nln8GVLDwGdub9k7DS5-1">
          <mxGeometry x="120" y="530" width="80" height="30" as="geometry" />
        </mxCell>
        <mxCell id="fO56wq2T3xtzVVdBopmP-0" value="&lt;p style=&quot;line-height: 100%&quot;&gt;&lt;br&gt;Note: that Validation is not the same as Authorisation.&lt;/p&gt;" style="rounded=0;whiteSpace=wrap;html=1;align=left;" vertex="1" parent="2Nln8GVLDwGdub9k7DS5-1">
          <mxGeometry x="210" y="410" width="390" height="30" as="geometry" />
        </mxCell>
      </root>
    </mxGraphModel>
  </diagram>
  <diagram id="s893I_g0Oj4wvViOalOA" name="Validation/Message Validation">
    <mxGraphModel dx="1711" dy="732" grid="1" gridSize="10" guides="1" tooltips="1" connect="1" arrows="1" fold="1" page="1" pageScale="1" pageWidth="827" pageHeight="1169" math="0" shadow="0">
      <root>
        <mxCell id="uj2mqk3xV9vcHsLNsrf7-0" />
        <mxCell id="uj2mqk3xV9vcHsLNsrf7-1" parent="uj2mqk3xV9vcHsLNsrf7-0" />
        <mxCell id="uj2mqk3xV9vcHsLNsrf7-2" style="edgeStyle=none;rounded=1;orthogonalLoop=1;jettySize=auto;html=1;labelBackgroundColor=none;startArrow=none;startFill=0;endArrow=open;endFill=0;endSize=6;strokeColor=#4D4D4D;fontFamily=Helvetica;fontSize=12;fontColor=#000000;" edge="1" parent="uj2mqk3xV9vcHsLNsrf7-1" source="uj2mqk3xV9vcHsLNsrf7-3" target="uj2mqk3xV9vcHsLNsrf7-9">
          <mxGeometry relative="1" as="geometry">
            <Array as="points">
              <mxPoint x="190" y="228" />
            </Array>
          </mxGeometry>
        </mxCell>
        <mxCell id="uj2mqk3xV9vcHsLNsrf7-3" value="" style="shape=mxgraph.bpmn.shape;html=1;verticalLabelPosition=bottom;labelBackgroundColor=#ffffff;verticalAlign=top;align=center;perimeter=ellipsePerimeter;outlineConnect=0;outline=standard;symbol=general;strokeColor=#000000;strokeWidth=1;fillColor=none;gradientColor=#ffffff;fontFamily=Helvetica;fontSize=12;fontColor=#000000;" vertex="1" parent="uj2mqk3xV9vcHsLNsrf7-1">
          <mxGeometry x="120" y="220" width="20" height="20" as="geometry" />
        </mxCell>
        <mxCell id="uj2mqk3xV9vcHsLNsrf7-4" style="edgeStyle=none;rounded=1;orthogonalLoop=1;jettySize=auto;html=1;entryX=0.5;entryY=0;entryDx=0;entryDy=0;labelBackgroundColor=none;startArrow=none;startFill=0;endArrow=open;endFill=0;endSize=6;strokeColor=#4D4D4D;fontFamily=Helvetica;fontSize=12;fontColor=#000000;" edge="1" parent="uj2mqk3xV9vcHsLNsrf7-1" source="uj2mqk3xV9vcHsLNsrf7-6" target="uj2mqk3xV9vcHsLNsrf7-12">
          <mxGeometry relative="1" as="geometry" />
        </mxCell>
        <mxCell id="uj2mqk3xV9vcHsLNsrf7-5" style="edgeStyle=elbowEdgeStyle;rounded=1;orthogonalLoop=1;jettySize=auto;html=1;entryX=0.5;entryY=1;entryDx=0;entryDy=0;labelBackgroundColor=none;startArrow=none;startFill=0;endArrow=open;endFill=0;endSize=6;strokeColor=#4D4D4D;fontFamily=Helvetica;fontSize=12;fontColor=#000000;" edge="1" parent="uj2mqk3xV9vcHsLNsrf7-1" source="uj2mqk3xV9vcHsLNsrf7-6" target="uj2mqk3xV9vcHsLNsrf7-3">
          <mxGeometry relative="1" as="geometry">
            <Array as="points">
              <mxPoint x="130" y="300" />
            </Array>
          </mxGeometry>
        </mxCell>
        <mxCell id="uj2mqk3xV9vcHsLNsrf7-6" value="Validate Payload Size" style="shape=ext;rounded=0;html=1;whiteSpace=wrap;labelBackgroundColor=none;strokeColor=#000000;strokeWidth=1;fillColor=none;gradientColor=#ffffff;fontFamily=Helvetica;fontSize=12;fontColor=#000000;align=left;" vertex="1" parent="uj2mqk3xV9vcHsLNsrf7-1">
          <mxGeometry x="160" y="330" width="60" height="40" as="geometry" />
        </mxCell>
        <mxCell id="uj2mqk3xV9vcHsLNsrf7-7" style="edgeStyle=none;rounded=1;orthogonalLoop=1;jettySize=auto;html=1;labelBackgroundColor=none;startArrow=none;startFill=0;endArrow=open;endFill=0;endSize=6;strokeColor=#4D4D4D;fontFamily=Helvetica;fontSize=12;fontColor=#000000;" edge="1" parent="uj2mqk3xV9vcHsLNsrf7-1" source="uj2mqk3xV9vcHsLNsrf7-9">
          <mxGeometry relative="1" as="geometry">
            <mxPoint x="190" y="330" as="targetPoint" />
          </mxGeometry>
        </mxCell>
        <mxCell id="uj2mqk3xV9vcHsLNsrf7-8" style="edgeStyle=none;rounded=1;orthogonalLoop=1;jettySize=auto;html=1;labelBackgroundColor=none;startArrow=none;startFill=0;endArrow=open;endFill=0;endSize=6;strokeColor=#4D4D4D;fontFamily=Helvetica;fontSize=12;fontColor=#000000;" edge="1" parent="uj2mqk3xV9vcHsLNsrf7-1" source="uj2mqk3xV9vcHsLNsrf7-9" target="uj2mqk3xV9vcHsLNsrf7-3">
          <mxGeometry relative="1" as="geometry">
            <Array as="points">
              <mxPoint x="130" y="290" />
            </Array>
          </mxGeometry>
        </mxCell>
        <mxCell id="uj2mqk3xV9vcHsLNsrf7-9" value="Validate Origin" style="shape=ext;rounded=0;html=1;whiteSpace=wrap;labelBackgroundColor=none;strokeColor=#000000;strokeWidth=1;fillColor=none;gradientColor=#ffffff;fontFamily=Helvetica;fontSize=12;fontColor=#000000;align=left;" vertex="1" parent="uj2mqk3xV9vcHsLNsrf7-1">
          <mxGeometry x="160" y="270" width="60" height="40" as="geometry" />
        </mxCell>
        <mxCell id="uj2mqk3xV9vcHsLNsrf7-10" style="edgeStyle=none;rounded=1;orthogonalLoop=1;jettySize=auto;html=1;entryX=0.5;entryY=0;entryDx=0;entryDy=0;labelBackgroundColor=none;startArrow=none;startFill=0;endArrow=open;endFill=0;endSize=6;strokeColor=#4D4D4D;fontFamily=Helvetica;fontSize=12;fontColor=#000000;" edge="1" parent="uj2mqk3xV9vcHsLNsrf7-1" source="uj2mqk3xV9vcHsLNsrf7-12" target="uj2mqk3xV9vcHsLNsrf7-18">
          <mxGeometry relative="1" as="geometry" />
        </mxCell>
        <mxCell id="uj2mqk3xV9vcHsLNsrf7-11" style="edgeStyle=elbowEdgeStyle;rounded=1;orthogonalLoop=1;jettySize=auto;html=1;entryX=0.5;entryY=1;entryDx=0;entryDy=0;labelBackgroundColor=none;startArrow=none;startFill=0;endArrow=open;endFill=0;endSize=6;strokeColor=#4D4D4D;fontFamily=Helvetica;fontSize=12;fontColor=#000000;" edge="1" parent="uj2mqk3xV9vcHsLNsrf7-1" source="uj2mqk3xV9vcHsLNsrf7-12" target="uj2mqk3xV9vcHsLNsrf7-3">
          <mxGeometry relative="1" as="geometry">
            <Array as="points">
              <mxPoint x="130" y="340" />
            </Array>
          </mxGeometry>
        </mxCell>
        <mxCell id="uj2mqk3xV9vcHsLNsrf7-12" value="Validate Mime Type" style="shape=ext;rounded=0;html=1;whiteSpace=wrap;labelBackgroundColor=none;strokeColor=#000000;strokeWidth=1;fillColor=none;gradientColor=#ffffff;fontFamily=Helvetica;fontSize=12;fontColor=#000000;align=left;" vertex="1" parent="uj2mqk3xV9vcHsLNsrf7-1">
          <mxGeometry x="160" y="390" width="60" height="40" as="geometry" />
        </mxCell>
        <mxCell id="uj2mqk3xV9vcHsLNsrf7-13" style="edgeStyle=elbowEdgeStyle;rounded=1;orthogonalLoop=1;jettySize=auto;html=1;labelBackgroundColor=none;startArrow=none;startFill=0;endArrow=open;endFill=0;endSize=6;strokeColor=#4D4D4D;fontFamily=Helvetica;fontSize=12;fontColor=#000000;entryX=0.5;entryY=1;entryDx=0;entryDy=0;" edge="1" parent="uj2mqk3xV9vcHsLNsrf7-1" source="uj2mqk3xV9vcHsLNsrf7-15" target="uj2mqk3xV9vcHsLNsrf7-3">
          <mxGeometry relative="1" as="geometry">
            <mxPoint x="130" y="220" as="targetPoint" />
            <Array as="points">
              <mxPoint x="130" y="410" />
            </Array>
          </mxGeometry>
        </mxCell>
        <mxCell id="uj2mqk3xV9vcHsLNsrf7-14" style="edgeStyle=elbowEdgeStyle;rounded=1;orthogonalLoop=1;jettySize=auto;html=1;labelBackgroundColor=none;startArrow=none;startFill=0;endArrow=open;endFill=0;endSize=6;strokeColor=#4D4D4D;fontFamily=Helvetica;fontSize=12;fontColor=#000000;entryX=0;entryY=0.5;entryDx=0;entryDy=0;" edge="1" parent="uj2mqk3xV9vcHsLNsrf7-1" source="uj2mqk3xV9vcHsLNsrf7-15" target="uj2mqk3xV9vcHsLNsrf7-21">
          <mxGeometry relative="1" as="geometry">
            <Array as="points">
              <mxPoint x="230" y="350" />
              <mxPoint x="240" y="350" />
              <mxPoint x="250" y="430" />
              <mxPoint x="230" y="590" />
            </Array>
          </mxGeometry>
        </mxCell>
        <mxCell id="uj2mqk3xV9vcHsLNsrf7-15" value="Validate Envelope&lt;br&gt;Structure" style="shape=ext;rounded=0;html=1;whiteSpace=wrap;labelBackgroundColor=none;strokeColor=#000000;strokeWidth=1;fillColor=none;gradientColor=#ffffff;fontFamily=Helvetica;fontSize=12;fontColor=#000000;align=left;" vertex="1" parent="uj2mqk3xV9vcHsLNsrf7-1">
          <mxGeometry x="160" y="510" width="60" height="40" as="geometry" />
        </mxCell>
        <mxCell id="uj2mqk3xV9vcHsLNsrf7-16" style="edgeStyle=none;rounded=1;orthogonalLoop=1;jettySize=auto;html=1;entryX=0.5;entryY=0;entryDx=0;entryDy=0;labelBackgroundColor=none;startArrow=none;startFill=0;endArrow=open;endFill=0;endSize=6;strokeColor=#4D4D4D;fontFamily=Helvetica;fontSize=12;fontColor=#000000;" edge="1" parent="uj2mqk3xV9vcHsLNsrf7-1" source="uj2mqk3xV9vcHsLNsrf7-18" target="uj2mqk3xV9vcHsLNsrf7-15">
          <mxGeometry relative="1" as="geometry" />
        </mxCell>
        <mxCell id="uj2mqk3xV9vcHsLNsrf7-17" style="edgeStyle=elbowEdgeStyle;rounded=1;orthogonalLoop=1;jettySize=auto;html=1;labelBackgroundColor=none;startArrow=none;startFill=0;endArrow=open;endFill=0;endSize=6;strokeColor=#4D4D4D;fontFamily=Helvetica;fontSize=12;fontColor=#000000;entryX=0.5;entryY=1;entryDx=0;entryDy=0;exitX=0;exitY=0.5;exitDx=0;exitDy=0;" edge="1" parent="uj2mqk3xV9vcHsLNsrf7-1" source="uj2mqk3xV9vcHsLNsrf7-18" target="uj2mqk3xV9vcHsLNsrf7-3">
          <mxGeometry relative="1" as="geometry">
            <mxPoint x="130" y="260" as="targetPoint" />
            <mxPoint x="180" y="509.9999999999999" as="sourcePoint" />
            <Array as="points">
              <mxPoint x="130" y="420" />
            </Array>
          </mxGeometry>
        </mxCell>
        <mxCell id="uj2mqk3xV9vcHsLNsrf7-18" value="Validate Envelope Syntax" style="shape=ext;rounded=0;html=1;whiteSpace=wrap;labelBackgroundColor=none;strokeColor=#000000;strokeWidth=1;fillColor=none;gradientColor=#ffffff;fontFamily=Helvetica;fontSize=12;fontColor=#000000;align=left;" vertex="1" parent="uj2mqk3xV9vcHsLNsrf7-1">
          <mxGeometry x="160" y="450" width="60" height="40" as="geometry" />
        </mxCell>
        <mxCell id="uj2mqk3xV9vcHsLNsrf7-19" value="" style="rounded=1;whiteSpace=wrap;html=1;labelBackgroundColor=none;strokeColor=#000000;strokeWidth=1;fillColor=none;gradientColor=#ffffff;fontFamily=Helvetica;fontSize=12;fontColor=#000000;align=left;container=1;recursiveResize=0;collapsible=0;dashed=1;arcSize=12;absoluteArcSize=1;" vertex="1" parent="uj2mqk3xV9vcHsLNsrf7-1">
          <mxGeometry x="260" y="250" width="280" height="250" as="geometry" />
        </mxCell>
        <mxCell id="uj2mqk3xV9vcHsLNsrf7-20" value="Validate Field Semantics" style="shape=ext;rounded=0;html=1;whiteSpace=wrap;labelBackgroundColor=none;strokeColor=#000000;strokeWidth=1;fillColor=none;gradientColor=#ffffff;fontFamily=Helvetica;fontSize=12;fontColor=#000000;align=left;" vertex="1" parent="uj2mqk3xV9vcHsLNsrf7-19">
          <mxGeometry x="210" y="20" width="60" height="40" as="geometry" />
        </mxCell>
        <mxCell id="uj2mqk3xV9vcHsLNsrf7-21" value="Field&lt;br&gt;Content&lt;br&gt;Conversion" style="shape=ext;rounded=0;html=1;whiteSpace=wrap;labelBackgroundColor=none;strokeColor=#000000;strokeWidth=1;fillColor=none;gradientColor=#ffffff;fontFamily=Helvetica;fontSize=12;fontColor=#000000;align=left;" vertex="1" parent="uj2mqk3xV9vcHsLNsrf7-19">
          <mxGeometry x="10" y="20" width="60" height="40" as="geometry" />
        </mxCell>
        <mxCell id="uj2mqk3xV9vcHsLNsrf7-22" value="Validate Field Format" style="shape=ext;rounded=0;html=1;whiteSpace=wrap;labelBackgroundColor=none;strokeColor=#000000;strokeWidth=1;fillColor=none;gradientColor=#ffffff;fontFamily=Helvetica;fontSize=12;fontColor=#000000;align=left;" vertex="1" parent="uj2mqk3xV9vcHsLNsrf7-19">
          <mxGeometry x="110" y="80" width="60" height="40" as="geometry" />
        </mxCell>
        <mxCell id="uj2mqk3xV9vcHsLNsrf7-23" value="Validate Field Type" style="shape=ext;rounded=0;html=1;whiteSpace=wrap;labelBackgroundColor=none;strokeColor=#000000;strokeWidth=1;fillColor=none;gradientColor=#ffffff;fontFamily=Helvetica;fontSize=12;fontColor=#000000;align=left;" vertex="1" parent="uj2mqk3xV9vcHsLNsrf7-19">
          <mxGeometry x="110" y="140" width="60" height="40" as="geometry" />
        </mxCell>
        <mxCell id="uj2mqk3xV9vcHsLNsrf7-24" style="edgeStyle=elbowEdgeStyle;rounded=1;orthogonalLoop=1;jettySize=auto;html=1;entryX=0.5;entryY=0;entryDx=0;entryDy=0;labelBackgroundColor=none;startArrow=none;startFill=0;endArrow=open;endFill=0;endSize=6;strokeColor=#4D4D4D;fontFamily=Helvetica;fontSize=12;fontColor=#000000;" edge="1" parent="uj2mqk3xV9vcHsLNsrf7-19" source="uj2mqk3xV9vcHsLNsrf7-22" target="uj2mqk3xV9vcHsLNsrf7-23">
          <mxGeometry relative="1" as="geometry" />
        </mxCell>
        <mxCell id="uj2mqk3xV9vcHsLNsrf7-25" style="edgeStyle=elbowEdgeStyle;rounded=1;orthogonalLoop=1;jettySize=auto;html=1;entryX=0;entryY=0.5;entryDx=0;entryDy=0;labelBackgroundColor=none;startArrow=none;startFill=0;endArrow=open;endFill=0;endSize=6;strokeColor=#4D4D4D;fontFamily=Helvetica;fontSize=12;fontColor=#000000;exitX=1;exitY=0.5;exitDx=0;exitDy=0;" edge="1" parent="uj2mqk3xV9vcHsLNsrf7-19" source="uj2mqk3xV9vcHsLNsrf7-26" target="uj2mqk3xV9vcHsLNsrf7-20">
          <mxGeometry relative="1" as="geometry">
            <Array as="points">
              <mxPoint x="180" y="130" />
              <mxPoint x="260" y="140" />
            </Array>
          </mxGeometry>
        </mxCell>
        <mxCell id="uj2mqk3xV9vcHsLNsrf7-26" value="Validate Field Range" style="shape=ext;rounded=0;html=1;whiteSpace=wrap;labelBackgroundColor=none;strokeColor=#000000;strokeWidth=1;fillColor=none;gradientColor=#ffffff;fontFamily=Helvetica;fontSize=12;fontColor=#000000;align=left;" vertex="1" parent="uj2mqk3xV9vcHsLNsrf7-19">
          <mxGeometry x="110" y="200" width="60" height="40" as="geometry" />
        </mxCell>
        <mxCell id="uj2mqk3xV9vcHsLNsrf7-27" style="edgeStyle=elbowEdgeStyle;rounded=1;orthogonalLoop=1;jettySize=auto;html=1;labelBackgroundColor=none;startArrow=none;startFill=0;endArrow=open;endFill=0;endSize=6;strokeColor=#4D4D4D;fontFamily=Helvetica;fontSize=12;fontColor=#000000;" edge="1" parent="uj2mqk3xV9vcHsLNsrf7-19" source="uj2mqk3xV9vcHsLNsrf7-23" target="uj2mqk3xV9vcHsLNsrf7-26">
          <mxGeometry relative="1" as="geometry" />
        </mxCell>
        <mxCell id="uj2mqk3xV9vcHsLNsrf7-28" style="edgeStyle=elbowEdgeStyle;rounded=1;orthogonalLoop=1;jettySize=auto;html=1;entryX=0.5;entryY=0;entryDx=0;entryDy=0;labelBackgroundColor=none;startArrow=none;startFill=0;endArrow=open;endFill=0;endSize=6;strokeColor=#4D4D4D;fontFamily=Helvetica;fontSize=12;fontColor=#000000;" edge="1" parent="uj2mqk3xV9vcHsLNsrf7-19" source="uj2mqk3xV9vcHsLNsrf7-29" target="uj2mqk3xV9vcHsLNsrf7-22">
          <mxGeometry relative="1" as="geometry" />
        </mxCell>
        <mxCell id="uj2mqk3xV9vcHsLNsrf7-29" value="Validate&lt;br&gt;Field IsNotNull" style="shape=ext;rounded=0;html=1;whiteSpace=wrap;labelBackgroundColor=none;strokeColor=#000000;strokeWidth=1;fillColor=none;gradientColor=#ffffff;fontFamily=Helvetica;fontSize=12;fontColor=#000000;align=left;" vertex="1" parent="uj2mqk3xV9vcHsLNsrf7-19">
          <mxGeometry x="110" y="20" width="60" height="40" as="geometry" />
        </mxCell>
        <mxCell id="uj2mqk3xV9vcHsLNsrf7-30" value="Convert MS Apostrophes" style="shape=ext;rounded=0;html=1;whiteSpace=wrap;labelBackgroundColor=none;strokeColor=#000000;strokeWidth=1;fillColor=none;gradientColor=#ffffff;fontFamily=Helvetica;fontSize=12;fontColor=#000000;align=left;" vertex="1" parent="uj2mqk3xV9vcHsLNsrf7-19">
          <mxGeometry x="10" y="80" width="60" height="40" as="geometry" />
        </mxCell>
        <mxCell id="uj2mqk3xV9vcHsLNsrf7-31" style="edgeStyle=elbowEdgeStyle;rounded=1;orthogonalLoop=1;jettySize=auto;html=1;labelBackgroundColor=none;startArrow=none;startFill=0;endArrow=open;endFill=0;endSize=6;strokeColor=#4D4D4D;fontFamily=Helvetica;fontSize=12;fontColor=#000000;entryX=0.5;entryY=0;entryDx=0;entryDy=0;" edge="1" parent="uj2mqk3xV9vcHsLNsrf7-19" source="uj2mqk3xV9vcHsLNsrf7-21" target="uj2mqk3xV9vcHsLNsrf7-30">
          <mxGeometry relative="1" as="geometry" />
        </mxCell>
        <mxCell id="uj2mqk3xV9vcHsLNsrf7-32" value="Convert MS Smart Quotes" style="shape=ext;rounded=0;html=1;whiteSpace=wrap;labelBackgroundColor=none;strokeColor=#000000;strokeWidth=1;fillColor=none;gradientColor=#ffffff;fontFamily=Helvetica;fontSize=12;fontColor=#000000;align=left;" vertex="1" parent="uj2mqk3xV9vcHsLNsrf7-19">
          <mxGeometry x="10" y="140" width="60" height="40" as="geometry" />
        </mxCell>
        <mxCell id="uj2mqk3xV9vcHsLNsrf7-33" value="" style="edgeStyle=elbowEdgeStyle;rounded=1;orthogonalLoop=1;jettySize=auto;html=1;labelBackgroundColor=none;startArrow=none;startFill=0;endArrow=open;endFill=0;endSize=6;strokeColor=#4D4D4D;fontFamily=Helvetica;fontSize=12;fontColor=#000000;" edge="1" parent="uj2mqk3xV9vcHsLNsrf7-19" source="uj2mqk3xV9vcHsLNsrf7-30" target="uj2mqk3xV9vcHsLNsrf7-32">
          <mxGeometry relative="1" as="geometry" />
        </mxCell>
        <mxCell id="uj2mqk3xV9vcHsLNsrf7-34" style="edgeStyle=elbowEdgeStyle;rounded=1;orthogonalLoop=1;jettySize=auto;html=1;entryX=0;entryY=0.5;entryDx=0;entryDy=0;labelBackgroundColor=none;startArrow=none;startFill=0;endArrow=open;endFill=0;endSize=6;strokeColor=#4D4D4D;fontFamily=Helvetica;fontSize=12;fontColor=#000000;" edge="1" parent="uj2mqk3xV9vcHsLNsrf7-19" source="uj2mqk3xV9vcHsLNsrf7-35" target="uj2mqk3xV9vcHsLNsrf7-29">
          <mxGeometry relative="1" as="geometry" />
        </mxCell>
        <mxCell id="uj2mqk3xV9vcHsLNsrf7-35" value="Convert em to double en" style="shape=ext;rounded=0;html=1;whiteSpace=wrap;labelBackgroundColor=none;strokeColor=#000000;strokeWidth=1;fillColor=none;gradientColor=#ffffff;fontFamily=Helvetica;fontSize=12;fontColor=#000000;align=left;" vertex="1" parent="uj2mqk3xV9vcHsLNsrf7-19">
          <mxGeometry x="10" y="200" width="60" height="40" as="geometry" />
        </mxCell>
        <mxCell id="uj2mqk3xV9vcHsLNsrf7-36" style="edgeStyle=elbowEdgeStyle;rounded=1;orthogonalLoop=1;jettySize=auto;html=1;entryX=0.5;entryY=0;entryDx=0;entryDy=0;labelBackgroundColor=none;startArrow=none;startFill=0;endArrow=open;endFill=0;endSize=6;strokeColor=#4D4D4D;fontFamily=Helvetica;fontSize=12;fontColor=#000000;" edge="1" parent="uj2mqk3xV9vcHsLNsrf7-19" source="uj2mqk3xV9vcHsLNsrf7-32" target="uj2mqk3xV9vcHsLNsrf7-35">
          <mxGeometry relative="1" as="geometry" />
        </mxCell>
        <mxCell id="uj2mqk3xV9vcHsLNsrf7-37" value="Repeat per field" style="text;html=1;align=center;verticalAlign=middle;resizable=0;points=[];autosize=1;fontSize=12;fontFamily=Helvetica;fontColor=#000000;" vertex="1" parent="uj2mqk3xV9vcHsLNsrf7-19">
          <mxGeometry x="180" y="230" width="100" height="20" as="geometry" />
        </mxCell>
        <mxCell id="uj2mqk3xV9vcHsLNsrf7-38" value="" style="shape=mxgraph.bpmn.shape;html=1;verticalLabelPosition=bottom;labelBackgroundColor=#ffffff;verticalAlign=top;align=center;perimeter=ellipsePerimeter;outlineConnect=0;outline=end;symbol=terminate;strokeColor=#000000;strokeWidth=1;fillColor=none;gradientColor=#ffffff;fontFamily=Helvetica;fontSize=12;fontColor=#000000;" vertex="1" parent="uj2mqk3xV9vcHsLNsrf7-1">
          <mxGeometry x="600" y="520" width="20" height="20" as="geometry" />
        </mxCell>
        <mxCell id="uj2mqk3xV9vcHsLNsrf7-39" style="rounded=1;orthogonalLoop=1;jettySize=auto;html=1;labelBackgroundColor=none;startArrow=none;startFill=0;endArrow=open;endFill=0;endSize=6;strokeColor=#4D4D4D;fontFamily=Helvetica;fontSize=12;fontColor=#000000;entryX=0;entryY=0.5;entryDx=0;entryDy=0;" edge="1" parent="uj2mqk3xV9vcHsLNsrf7-1" source="uj2mqk3xV9vcHsLNsrf7-20" target="uj2mqk3xV9vcHsLNsrf7-41">
          <mxGeometry relative="1" as="geometry" />
        </mxCell>
        <mxCell id="uj2mqk3xV9vcHsLNsrf7-40" style="edgeStyle=none;rounded=1;orthogonalLoop=1;jettySize=auto;html=1;labelBackgroundColor=none;startArrow=none;startFill=0;endArrow=open;endFill=0;endSize=6;strokeColor=#4D4D4D;fontFamily=Helvetica;fontSize=12;fontColor=#000000;" edge="1" parent="uj2mqk3xV9vcHsLNsrf7-1" source="uj2mqk3xV9vcHsLNsrf7-41" target="uj2mqk3xV9vcHsLNsrf7-38">
          <mxGeometry relative="1" as="geometry" />
        </mxCell>
        <mxCell id="uj2mqk3xV9vcHsLNsrf7-41" value="Validate whole&amp;nbsp;&lt;br&gt;Object" style="shape=ext;rounded=0;html=1;whiteSpace=wrap;labelBackgroundColor=none;strokeColor=#000000;strokeWidth=1;fillColor=none;gradientColor=#ffffff;fontFamily=Helvetica;fontSize=12;fontColor=#000000;align=left;" vertex="1" parent="uj2mqk3xV9vcHsLNsrf7-1">
          <mxGeometry x="580" y="270" width="60" height="40" as="geometry" />
        </mxCell>
        <mxCell id="uj2mqk3xV9vcHsLNsrf7-42" value="&lt;font style=&quot;font-size: 12px ; font-weight: normal&quot;&gt;&lt;i&gt;Diagram: Development - Validation Sequence&lt;/i&gt;&lt;/font&gt;" style="text;strokeColor=none;fillColor=none;html=1;fontSize=24;fontStyle=1;verticalAlign=middle;align=left;shadow=0;glass=0;comic=0;opacity=30;fontColor=#808080;" vertex="1" parent="uj2mqk3xV9vcHsLNsrf7-1">
          <mxGeometry x="120" y="600" width="520" height="20" as="geometry" />
        </mxCell>
        <UserObject label="" tooltip="ABOUT&#xa;&#xa;Validation of Input must be lenient, validate each field first, then the whole object." id="uj2mqk3xV9vcHsLNsrf7-43">
          <mxCell style="shape=image;html=1;verticalAlign=top;verticalLabelPosition=bottom;labelBackgroundColor=#ffffff;imageAspect=0;aspect=fixed;image=https://cdn1.iconfinder.com/data/icons/hawcons/32/699014-icon-28-information-128.png;shadow=0;dashed=0;fontFamily=Helvetica;fontSize=12;fontColor=#000000;align=center;strokeColor=#000000;fillColor=#505050;dashPattern=1 1;" vertex="1" parent="uj2mqk3xV9vcHsLNsrf7-1">
            <mxGeometry x="660" y="600" width="20" height="20" as="geometry" />
          </mxCell>
        </UserObject>
      </root>
    </mxGraphModel>
  </diagram>
</mxfile>
